<?xml version="1.0" encoding="utf-8"?>
<!-- Generator: Adobe Illustrator 17.0.2, SVG Export Plug-In . SVG Version: 6.00 Build 0)  -->
<!DOCTYPE svg PUBLIC "-//W3C//DTD SVG 1.1//EN" "http://www.w3.org/Graphics/SVG/1.1/DTD/svg11.dtd">
<svg version="1.1" id="Calque_1" xmlns="http://www.w3.org/2000/svg" xmlns:xlink="http://www.w3.org/1999/xlink" x="0px" y="0px"
	 width="66.967px" height="39.274px" viewBox="0 0 66.967 39.274" enable-background="new 0 0 66.967 39.274" xml:space="preserve">
<g id="Calque_2">
</g>
<g id="Calque_3">
</g>
<g id="Calque_1_1_" opacity="0.6">
	
		<polygon opacity="0.7" fill="none" stroke="#754C24" stroke-width="2" stroke-miterlimit="10" enable-background="new    " points="
		-17.74,9.539 -34.24,19.178 -50.74,9.539 -50.74,-9.74 -34.24,-19.379 -17.74,-9.74 	"/>
	
		<line opacity="0.7" fill="none" stroke="#754C24" stroke-width="2" stroke-miterlimit="10" enable-background="new    " x1="-50.424" y1="-9.74" x2="-33.617" y2="-0.101"/>
	
		<line opacity="0.7" fill="none" stroke="#754C24" stroke-width="2" stroke-miterlimit="10" enable-background="new    " x1="-33.617" y1="-0.101" x2="-16.808" y2="-9.74"/>
	
		<line opacity="0.7" fill="none" stroke="#754C24" stroke-width="2" stroke-miterlimit="10" enable-background="new    " x1="-33.617" y1="-0.101" x2="-33.423" y2="19.178"/>
	<ellipse opacity="0.7" fill="#A8643F" enable-background="new    " cx="-50.529" cy="-9.885" rx="3.719" ry="3.711"/>
	<ellipse opacity="0.7" fill="#A8643F" enable-background="new    " cx="-50.529" cy="9.394" rx="3.719" ry="3.712"/>
	<ellipse opacity="0.7" fill="#A8643F" enable-background="new    " cx="-33.527" cy="19.033" rx="3.719" ry="3.712"/>
	<ellipse opacity="0.7" fill="#A8643F" enable-background="new    " cx="-16.912" cy="9.394" rx="3.719" ry="3.712"/>
	<ellipse opacity="0.7" fill="#A8643F" enable-background="new    " cx="-33.527" cy="-0.246" rx="3.719" ry="3.712"/>
	<ellipse opacity="0.7" fill="#A8643F" enable-background="new    " cx="-33.527" cy="-19.523" rx="3.719" ry="3.711"/>
	<ellipse opacity="0.7" fill="#A8643F" enable-background="new    " cx="-16.912" cy="-9.885" rx="3.719" ry="3.711"/>
	<ellipse opacity="0.7" fill="#AF6C4F" enable-background="new    " cx="-33.527" cy="-9.596" rx="4.105" ry="2.844"/>
	
		<ellipse transform="matrix(-0.9986 -0.0526 0.0526 -0.9986 -50.263 8.0189)" opacity="0.7" fill="#AF6C4F" enable-background="new    " cx="-25.026" cy="4.671" rx="2.849" ry="4.096"/>
	
		<ellipse transform="matrix(-0.9956 0.0933 -0.0933 -0.9956 -83.4049 14.0086)" opacity="0.7" fill="#AF6C4F" enable-background="new    " cx="-42.03" cy="5.055" rx="2.849" ry="4.096"/>
	
		<polygon opacity="0.7" fill="none" stroke="#754C24" stroke-width="2" stroke-miterlimit="10" enable-background="new    " points="
		16.26,9.539 -0.74,19.178 -17.74,9.539 -17.74,-9.74 -0.74,-19.379 16.26,-9.74 	"/>
	
		<line opacity="0.7" fill="none" stroke="#754C24" stroke-width="2" stroke-miterlimit="10" enable-background="new    " x1="-16.897" y1="-9.74" x2="-0.088" y2="-0.101"/>
	
		<line opacity="0.7" fill="none" stroke="#754C24" stroke-width="2" stroke-miterlimit="10" enable-background="new    " x1="-0.088" y1="-0.101" x2="16.719" y2="-9.74"/>
	
		<line opacity="0.7" fill="none" stroke="#754C24" stroke-width="2" stroke-miterlimit="10" enable-background="new    " x1="-0.088" y1="-0.101" x2="0.105" y2="19.178"/>
	<ellipse opacity="0.7" fill="#A8643F" enable-background="new    " cx="-17.001" cy="-9.885" rx="3.719" ry="3.711"/>
	<ellipse opacity="0.7" fill="#A8643F" enable-background="new    " cx="-17.001" cy="9.394" rx="3.719" ry="3.712"/>
	<ellipse opacity="0.7" fill="#A8643F" enable-background="new    " cx="0" cy="19.033" rx="3.719" ry="3.712"/>
	<ellipse opacity="0.7" fill="#A8643F" enable-background="new    " cx="16.615" cy="9.394" rx="3.719" ry="3.712"/>
	<ellipse opacity="0.7" fill="#A8643F" enable-background="new    " cx="0" cy="-0.246" rx="3.719" ry="3.712"/>
	<ellipse opacity="0.7" fill="#A8643F" enable-background="new    " cx="0" cy="-19.523" rx="3.719" ry="3.711"/>
	<ellipse opacity="0.7" fill="#A8643F" enable-background="new    " cx="16.615" cy="-9.885" rx="3.719" ry="3.711"/>
	<ellipse opacity="0.7" fill="#AF6C4F" enable-background="new    " cx="0.001" cy="-9.596" rx="4.105" ry="2.844"/>
	
		<ellipse transform="matrix(-0.9986 -0.0526 0.0526 -0.9986 16.7445 9.7829)" opacity="0.7" fill="#AF6C4F" enable-background="new    " cx="8.501" cy="4.671" rx="2.849" ry="4.096"/>
	
		<ellipse transform="matrix(-0.9956 0.0933 -0.0933 -0.9956 -16.4934 10.8823)" opacity="0.7" fill="#AF6C4F" enable-background="new    " cx="-8.501" cy="5.056" rx="2.849" ry="4.096"/>
	
		<polygon opacity="0.7" fill="none" stroke="#754C24" stroke-width="2" stroke-miterlimit="10" enable-background="new    " points="
		49.26,9.539 32.76,19.178 16.26,9.539 16.26,-9.74 32.76,-19.379 49.26,-9.74 	"/>
	
		<line opacity="0.7" fill="none" stroke="#754C24" stroke-width="2" stroke-miterlimit="10" enable-background="new    " x1="16.631" y1="-9.74" x2="33.439" y2="-0.101"/>
	
		<line opacity="0.7" fill="none" stroke="#754C24" stroke-width="2" stroke-miterlimit="10" enable-background="new    " x1="33.439" y1="-0.101" x2="50.247" y2="-9.74"/>
	
		<line opacity="0.7" fill="none" stroke="#754C24" stroke-width="2" stroke-miterlimit="10" enable-background="new    " x1="33.439" y1="-0.101" x2="33.632" y2="19.178"/>
	<ellipse opacity="0.7" fill="#A8643F" enable-background="new    " cx="16.527" cy="-9.885" rx="3.719" ry="3.711"/>
	<ellipse opacity="0.7" fill="#A8643F" enable-background="new    " cx="16.527" cy="9.394" rx="3.719" ry="3.712"/>
	<ellipse opacity="0.7" fill="#A8643F" enable-background="new    " cx="33.528" cy="19.033" rx="3.719" ry="3.712"/>
	<ellipse opacity="0.7" fill="#A8643F" enable-background="new    " cx="50.143" cy="9.394" rx="3.719" ry="3.712"/>
	<ellipse opacity="0.7" fill="#A8643F" enable-background="new    " cx="33.528" cy="-0.246" rx="3.719" ry="3.712"/>
	<ellipse opacity="0.7" fill="#A8643F" enable-background="new    " cx="33.528" cy="-19.523" rx="3.719" ry="3.711"/>
	<ellipse opacity="0.7" fill="#A8643F" enable-background="new    " cx="50.143" cy="-9.885" rx="3.719" ry="3.711"/>
	<ellipse opacity="0.7" fill="#AF6C4F" enable-background="new    " cx="33.529" cy="-9.596" rx="4.105" ry="2.844"/>
	
		<ellipse transform="matrix(-0.9986 -0.0526 0.0526 -0.9986 83.7523 11.5471)" opacity="0.7" fill="#AF6C4F" enable-background="new    " cx="42.028" cy="4.671" rx="2.849" ry="4.096"/>
	
		<ellipse transform="matrix(-0.9956 0.0933 -0.0933 -0.9956 50.4184 7.7577)" opacity="0.7" fill="#AF6C4F" enable-background="new    " cx="25.028" cy="5.057" rx="2.849" ry="4.096"/>
	
		<polygon opacity="0.7" fill="none" stroke="#754C24" stroke-width="2" stroke-miterlimit="10" enable-background="new    " points="
		83.26,9.539 66.26,19.178 49.26,9.539 49.26,-9.74 66.26,-19.379 83.26,-9.74 	"/>
	
		<line opacity="0.7" fill="none" stroke="#754C24" stroke-width="2" stroke-miterlimit="10" enable-background="new    " x1="50.159" y1="-9.74" x2="66.967" y2="-0.101"/>
	
		<line opacity="0.7" fill="none" stroke="#754C24" stroke-width="2" stroke-miterlimit="10" enable-background="new    " x1="66.967" y1="-0.101" x2="83.775" y2="-9.74"/>
	
		<line opacity="0.7" fill="none" stroke="#754C24" stroke-width="2" stroke-miterlimit="10" enable-background="new    " x1="66.967" y1="-0.101" x2="67.16" y2="19.178"/>
	<ellipse opacity="0.7" fill="#A8643F" enable-background="new    " cx="50.055" cy="-9.885" rx="3.719" ry="3.711"/>
	<ellipse opacity="0.7" fill="#A8643F" enable-background="new    " cx="50.055" cy="9.394" rx="3.719" ry="3.712"/>
	<ellipse opacity="0.7" fill="#A8643F" enable-background="new    " cx="67.056" cy="19.033" rx="3.719" ry="3.712"/>
	<ellipse opacity="0.7" fill="#A8643F" enable-background="new    " cx="83.671" cy="9.394" rx="3.719" ry="3.712"/>
	<ellipse opacity="0.7" fill="#A8643F" enable-background="new    " cx="67.056" cy="-0.246" rx="3.719" ry="3.712"/>
	<ellipse opacity="0.7" fill="#A8643F" enable-background="new    " cx="67.056" cy="-19.523" rx="3.719" ry="3.711"/>
	<ellipse opacity="0.7" fill="#A8643F" enable-background="new    " cx="83.671" cy="-9.885" rx="3.719" ry="3.711"/>
	<ellipse opacity="0.7" fill="#AF6C4F" enable-background="new    " cx="67.056" cy="-9.596" rx="4.105" ry="2.844"/>
	
		<ellipse transform="matrix(-0.9986 -0.0527 0.0527 -0.9986 150.7647 13.3183)" opacity="0.7" fill="#AF6C4F" enable-background="new    " cx="75.558" cy="4.671" rx="2.849" ry="4.097"/>
	
		<ellipse transform="matrix(-0.9956 0.0933 -0.0933 -0.9956 117.3297 4.6314)" opacity="0.7" fill="#AF6C4F" enable-background="new    " cx="58.557" cy="5.059" rx="2.849" ry="4.096"/>
	
		<polygon opacity="0.7" fill="none" stroke="#754C24" stroke-width="2" stroke-miterlimit="10" enable-background="new    " points="
		116.26,9.539 99.76,19.178 83.26,9.539 83.26,-9.74 99.76,-19.379 116.26,-9.74 	"/>
	
		<line opacity="0.7" fill="none" stroke="#754C24" stroke-width="2" stroke-miterlimit="10" enable-background="new    " x1="83.687" y1="-9.74" x2="100.495" y2="-0.101"/>
	
		<line opacity="0.7" fill="none" stroke="#754C24" stroke-width="2" stroke-miterlimit="10" enable-background="new    " x1="100.495" y1="-0.101" x2="117.303" y2="-9.74"/>
	
		<line opacity="0.7" fill="none" stroke="#754C24" stroke-width="2" stroke-miterlimit="10" enable-background="new    " x1="100.495" y1="-0.101" x2="100.688" y2="19.178"/>
	<ellipse opacity="0.7" fill="#A8643F" enable-background="new    " cx="83.583" cy="-9.885" rx="3.719" ry="3.711"/>
	<ellipse opacity="0.7" fill="#A8643F" enable-background="new    " cx="83.583" cy="9.394" rx="3.719" ry="3.712"/>
	<ellipse opacity="0.7" fill="#A8643F" enable-background="new    " cx="100.584" cy="19.033" rx="3.719" ry="3.712"/>
	<ellipse opacity="0.7" fill="#A8643F" enable-background="new    " cx="117.199" cy="9.394" rx="3.719" ry="3.712"/>
	<ellipse opacity="0.7" fill="#A8643F" enable-background="new    " cx="100.584" cy="-0.246" rx="3.719" ry="3.712"/>
	<ellipse opacity="0.7" fill="#A8643F" enable-background="new    " cx="100.584" cy="-19.523" rx="3.719" ry="3.711"/>
	<ellipse opacity="0.7" fill="#A8643F" enable-background="new    " cx="117.199" cy="-9.885" rx="3.719" ry="3.711"/>
	<ellipse opacity="0.7" fill="#AF6C4F" enable-background="new    " cx="100.584" cy="-9.596" rx="4.105" ry="2.844"/>
	
		<ellipse transform="matrix(-0.9986 -0.0527 0.0527 -0.9986 217.7747 15.0878)" opacity="0.7" fill="#AF6C4F" enable-background="new    " cx="109.086" cy="4.673" rx="2.849" ry="4.097"/>
	
		<ellipse transform="matrix(-0.9956 0.0933 -0.0933 -0.9956 184.2298 1.5056)" opacity="0.7" fill="#AF6C4F" enable-background="new    " cx="92.08" cy="5.06" rx="2.85" ry="4.096"/>
	<ellipse opacity="0.7" fill="#A8643F" enable-background="new    " cx="117.11" cy="-9.885" rx="3.719" ry="3.711"/>
	<ellipse opacity="0.7" fill="#A8643F" enable-background="new    " cx="117.11" cy="9.394" rx="3.719" ry="3.712"/>
	
		<polygon opacity="0.7" fill="none" stroke="#754C24" stroke-width="2" stroke-miterlimit="10" enable-background="new    " points="
		-17.74,48.539 -34.24,58.178 -50.74,48.539 -50.74,29.26 -34.24,19.621 -17.74,29.26 	"/>
	
		<line opacity="0.7" fill="none" stroke="#754C24" stroke-width="2" stroke-miterlimit="10" enable-background="new    " x1="-50.424" y1="29.26" x2="-33.617" y2="38.899"/>
	
		<line opacity="0.7" fill="none" stroke="#754C24" stroke-width="2" stroke-miterlimit="10" enable-background="new    " x1="-33.617" y1="38.899" x2="-16.808" y2="29.26"/>
	
		<line opacity="0.7" fill="none" stroke="#754C24" stroke-width="2" stroke-miterlimit="10" enable-background="new    " x1="-33.617" y1="38.899" x2="-33.423" y2="58.178"/>
	<ellipse opacity="0.7" fill="#A8643F" enable-background="new    " cx="-50.529" cy="29.115" rx="3.719" ry="3.711"/>
	<ellipse opacity="0.7" fill="#A8643F" enable-background="new    " cx="-50.529" cy="48.394" rx="3.719" ry="3.712"/>
	<ellipse opacity="0.7" fill="#A8643F" enable-background="new    " cx="-33.527" cy="58.033" rx="3.719" ry="3.712"/>
	<ellipse opacity="0.7" fill="#A8643F" enable-background="new    " cx="-16.912" cy="48.394" rx="3.719" ry="3.712"/>
	<ellipse opacity="0.7" fill="#A8643F" enable-background="new    " cx="-33.527" cy="38.754" rx="3.719" ry="3.712"/>
	<ellipse opacity="0.7" fill="#A8643F" enable-background="new    " cx="-33.527" cy="19.477" rx="3.719" ry="3.711"/>
	<ellipse opacity="0.7" fill="#A8643F" enable-background="new    " cx="-16.912" cy="29.115" rx="3.719" ry="3.711"/>
	<ellipse opacity="0.7" fill="#AF6C4F" enable-background="new    " cx="-33.527" cy="29.404" rx="4.105" ry="2.844"/>
	
		<ellipse transform="matrix(-0.9986 -0.0526 0.0526 -0.9986 -52.3155 85.9629)" opacity="0.7" fill="#AF6C4F" enable-background="new    " cx="-25.027" cy="43.67" rx="2.849" ry="4.096"/>
	
		<ellipse transform="matrix(-0.9956 0.0933 -0.0933 -0.9956 -79.7688 91.8408)" opacity="0.7" fill="#AF6C4F" enable-background="new    " cx="-42.031" cy="44.056" rx="2.849" ry="4.096"/>
	
		<polygon opacity="0.7" fill="none" stroke="#754C24" stroke-width="2" stroke-miterlimit="10" enable-background="new    " points="
		16.26,48.539 -0.74,58.178 -17.74,48.539 -17.74,29.26 -0.74,19.621 16.26,29.26 	"/>
	
		<line opacity="0.7" fill="none" stroke="#754C24" stroke-width="2" stroke-miterlimit="10" enable-background="new    " x1="-16.897" y1="29.26" x2="-0.088" y2="38.899"/>
	
		<line opacity="0.7" fill="none" stroke="#754C24" stroke-width="2" stroke-miterlimit="10" enable-background="new    " x1="-0.088" y1="38.899" x2="16.719" y2="29.26"/>
	
		<line opacity="0.7" fill="none" stroke="#754C24" stroke-width="2" stroke-miterlimit="10" enable-background="new    " x1="-0.088" y1="38.899" x2="0.105" y2="58.178"/>
	<ellipse opacity="0.7" fill="#A8643F" enable-background="new    " cx="-17.001" cy="29.115" rx="3.719" ry="3.711"/>
	<ellipse opacity="0.7" fill="#A8643F" enable-background="new    " cx="-17.001" cy="48.394" rx="3.719" ry="3.712"/>
	<ellipse opacity="0.7" fill="#A8643F" enable-background="new    " cx="0" cy="58.033" rx="3.719" ry="3.712"/>
	<ellipse opacity="0.7" fill="#A8643F" enable-background="new    " cx="16.615" cy="48.394" rx="3.719" ry="3.712"/>
	<ellipse opacity="0.7" fill="#A8643F" enable-background="new    " cx="0" cy="38.754" rx="3.719" ry="3.712"/>
	<ellipse opacity="0.7" fill="#A8643F" enable-background="new    " cx="0" cy="19.477" rx="3.719" ry="3.711"/>
	<ellipse opacity="0.7" fill="#A8643F" enable-background="new    " cx="16.615" cy="29.115" rx="3.719" ry="3.711"/>
	<ellipse opacity="0.7" fill="#AF6C4F" enable-background="new    " cx="0.001" cy="29.404" rx="4.105" ry="2.844"/>
	
		<ellipse transform="matrix(-0.9986 -0.0526 0.0526 -0.9986 14.6922 87.7271)" opacity="0.7" fill="#AF6C4F" enable-background="new    " cx="8.501" cy="43.67" rx="2.849" ry="4.096"/>
	
		<ellipse transform="matrix(-0.9956 0.0933 -0.0933 -0.9956 -12.8573 88.7145)" opacity="0.7" fill="#AF6C4F" enable-background="new    " cx="-8.503" cy="44.057" rx="2.849" ry="4.096"/>
	
		<polygon opacity="0.7" fill="none" stroke="#754C24" stroke-width="2" stroke-miterlimit="10" enable-background="new    " points="
		49.26,48.539 32.76,58.178 16.26,48.539 16.26,29.26 32.76,19.621 49.26,29.26 	"/>
	
		<line opacity="0.7" fill="none" stroke="#754C24" stroke-width="2" stroke-miterlimit="10" enable-background="new    " x1="16.631" y1="29.26" x2="33.439" y2="38.899"/>
	
		<line opacity="0.7" fill="none" stroke="#754C24" stroke-width="2" stroke-miterlimit="10" enable-background="new    " x1="33.439" y1="38.899" x2="50.247" y2="29.26"/>
	
		<line opacity="0.7" fill="none" stroke="#754C24" stroke-width="2" stroke-miterlimit="10" enable-background="new    " x1="33.439" y1="38.899" x2="33.632" y2="58.178"/>
	<ellipse opacity="0.7" fill="#A8643F" enable-background="new    " cx="16.527" cy="29.115" rx="3.719" ry="3.711"/>
	<ellipse opacity="0.7" fill="#A8643F" enable-background="new    " cx="16.527" cy="48.394" rx="3.719" ry="3.712"/>
	<ellipse opacity="0.7" fill="#A8643F" enable-background="new    " cx="33.528" cy="58.033" rx="3.719" ry="3.712"/>
	<ellipse opacity="0.7" fill="#A8643F" enable-background="new    " cx="50.143" cy="48.394" rx="3.719" ry="3.712"/>
	<ellipse opacity="0.7" fill="#A8643F" enable-background="new    " cx="33.528" cy="38.754" rx="3.719" ry="3.712"/>
	<ellipse opacity="0.7" fill="#A8643F" enable-background="new    " cx="33.528" cy="19.477" rx="3.719" ry="3.711"/>
	<ellipse opacity="0.7" fill="#A8643F" enable-background="new    " cx="50.143" cy="29.115" rx="3.719" ry="3.711"/>
	<ellipse opacity="0.7" fill="#AF6C4F" enable-background="new    " cx="33.529" cy="29.404" rx="4.105" ry="2.844"/>
	
		<ellipse transform="matrix(-0.9986 -0.0526 0.0526 -0.9986 81.6997 89.4913)" opacity="0.7" fill="#AF6C4F" enable-background="new    " cx="42.027" cy="43.671" rx="2.849" ry="4.096"/>
	
		<ellipse transform="matrix(-0.9956 0.0933 -0.0933 -0.9956 54.0545 85.5901)" opacity="0.7" fill="#AF6C4F" enable-background="new    " cx="25.026" cy="44.059" rx="2.849" ry="4.096"/>
	
		<polygon opacity="0.7" fill="none" stroke="#754C24" stroke-width="2" stroke-miterlimit="10" enable-background="new    " points="
		83.26,48.539 66.26,58.178 49.26,48.539 49.26,29.26 66.26,19.621 83.26,29.26 	"/>
	
		<line opacity="0.7" fill="none" stroke="#754C24" stroke-width="2" stroke-miterlimit="10" enable-background="new    " x1="50.159" y1="29.26" x2="66.967" y2="38.899"/>
	
		<line opacity="0.7" fill="none" stroke="#754C24" stroke-width="2" stroke-miterlimit="10" enable-background="new    " x1="66.967" y1="38.899" x2="83.775" y2="29.26"/>
	
		<line opacity="0.7" fill="none" stroke="#754C24" stroke-width="2" stroke-miterlimit="10" enable-background="new    " x1="66.967" y1="38.899" x2="67.16" y2="58.178"/>
	<ellipse opacity="0.7" fill="#A8643F" enable-background="new    " cx="50.055" cy="29.115" rx="3.719" ry="3.711"/>
	<ellipse opacity="0.7" fill="#A8643F" enable-background="new    " cx="50.055" cy="48.394" rx="3.719" ry="3.712"/>
	<ellipse opacity="0.7" fill="#A8643F" enable-background="new    " cx="67.056" cy="58.033" rx="3.719" ry="3.712"/>
	<ellipse opacity="0.7" fill="#A8643F" enable-background="new    " cx="83.671" cy="48.394" rx="3.719" ry="3.712"/>
	<ellipse opacity="0.7" fill="#A8643F" enable-background="new    " cx="67.056" cy="38.754" rx="3.719" ry="3.712"/>
	<ellipse opacity="0.7" fill="#A8643F" enable-background="new    " cx="67.056" cy="19.477" rx="3.719" ry="3.711"/>
	<ellipse opacity="0.7" fill="#A8643F" enable-background="new    " cx="83.671" cy="29.115" rx="3.719" ry="3.711"/>
	<ellipse opacity="0.7" fill="#AF6C4F" enable-background="new    " cx="67.056" cy="29.404" rx="4.105" ry="2.844"/>
	
		<ellipse transform="matrix(-0.9986 -0.0527 0.0527 -0.9986 148.7085 91.2653)" opacity="0.7" fill="#AF6C4F" enable-background="new    " cx="75.558" cy="43.672" rx="2.849" ry="4.097"/>
	
		<ellipse transform="matrix(-0.9956 0.0933 -0.0933 -0.9956 120.9658 82.4638)" opacity="0.7" fill="#AF6C4F" enable-background="new    " cx="58.555" cy="44.06" rx="2.849" ry="4.096"/>
	
		<polygon opacity="0.7" fill="none" stroke="#754C24" stroke-width="2" stroke-miterlimit="10" enable-background="new    " points="
		116.26,48.539 99.76,58.178 83.26,48.539 83.26,29.26 99.76,19.621 116.26,29.26 	"/>
	
		<line opacity="0.7" fill="none" stroke="#754C24" stroke-width="2" stroke-miterlimit="10" enable-background="new    " x1="83.687" y1="29.26" x2="100.495" y2="38.899"/>
	
		<line opacity="0.7" fill="none" stroke="#754C24" stroke-width="2" stroke-miterlimit="10" enable-background="new    " x1="100.495" y1="38.899" x2="117.303" y2="29.26"/>
	
		<line opacity="0.7" fill="none" stroke="#754C24" stroke-width="2" stroke-miterlimit="10" enable-background="new    " x1="100.495" y1="38.899" x2="100.688" y2="58.178"/>
	<ellipse opacity="0.7" fill="#A8643F" enable-background="new    " cx="83.583" cy="29.115" rx="3.719" ry="3.711"/>
	<ellipse opacity="0.7" fill="#A8643F" enable-background="new    " cx="83.583" cy="48.394" rx="3.719" ry="3.712"/>
	<ellipse opacity="0.7" fill="#A8643F" enable-background="new    " cx="100.584" cy="58.033" rx="3.719" ry="3.712"/>
	<ellipse opacity="0.7" fill="#A8643F" enable-background="new    " cx="117.199" cy="48.394" rx="3.719" ry="3.712"/>
	<ellipse opacity="0.7" fill="#A8643F" enable-background="new    " cx="100.584" cy="38.754" rx="3.719" ry="3.712"/>
	<ellipse opacity="0.7" fill="#A8643F" enable-background="new    " cx="100.584" cy="19.477" rx="3.719" ry="3.711"/>
	<ellipse opacity="0.7" fill="#A8643F" enable-background="new    " cx="117.199" cy="29.115" rx="3.719" ry="3.711"/>
	<ellipse opacity="0.7" fill="#AF6C4F" enable-background="new    " cx="100.584" cy="29.404" rx="4.105" ry="2.844"/>
	
		<ellipse transform="matrix(-0.9986 -0.0527 0.0527 -0.9986 215.7184 93.0348)" opacity="0.7" fill="#AF6C4F" enable-background="new    " cx="109.086" cy="43.673" rx="2.849" ry="4.097"/>
	
		<ellipse transform="matrix(-0.9956 0.0933 -0.0933 -0.9956 187.8653 79.3333)" opacity="0.7" fill="#AF6C4F" enable-background="new    " cx="92.078" cy="44.058" rx="2.85" ry="4.096"/>
	<ellipse opacity="0.7" fill="#A8643F" enable-background="new    " cx="117.11" cy="29.115" rx="3.719" ry="3.711"/>
	<ellipse opacity="0.7" fill="#A8643F" enable-background="new    " cx="117.11" cy="48.394" rx="3.719" ry="3.712"/>
	<ellipse opacity="0.7" fill="#A8643F" enable-background="new    " cx="-33.527" cy="58.477" rx="3.719" ry="3.711"/>
	<ellipse opacity="0.7" fill="#A8643F" enable-background="new    " cx="0" cy="58.477" rx="3.719" ry="3.711"/>
	<ellipse opacity="0.7" fill="#A8643F" enable-background="new    " cx="33.528" cy="58.477" rx="3.719" ry="3.711"/>
	<ellipse opacity="0.7" fill="#A8643F" enable-background="new    " cx="67.056" cy="58.477" rx="3.719" ry="3.711"/>
	<ellipse opacity="0.7" fill="#A8643F" enable-background="new    " cx="100.584" cy="58.477" rx="3.719" ry="3.711"/>
	<polygon fill="none" points="0.26,0 67.26,0 67.056,39.006 -0.391,39.274 	"/>
</g>
</svg>
